<svg width="22" height="28" viewBox="0 0 22 28" fill="none" xmlns="http://www.w3.org/2000/svg">
<path d="M7.29394 27.2C3.30203 27.1758 0 18.5949 0 14.2249C0 7.08649 5.08543 5.5237 7.04531 5.5237C7.92855 5.5237 8.87167 5.88894 9.70351 6.21215C10.2852 6.4376 10.8868 6.67034 11.2214 6.67034C11.4217 6.67034 11.8936 6.47236 12.3103 6.29865C13.199 5.92612 14.3047 5.46313 15.5924 5.46313C15.5947 5.46313 15.5978 5.46313 15.6 5.46313C16.5615 5.46313 19.4769 5.68533 21.2296 8.45698L21.6401 9.10665L21.0492 9.57615C20.2051 10.2468 18.665 11.4703 18.665 13.8937C18.665 16.7639 20.4092 17.8677 21.2472 18.3986C21.6171 18.6329 22 18.8746 22 19.403C22 19.7481 19.3848 27.1572 15.587 27.1572C14.6577 27.1572 14.0008 26.863 13.4214 26.6037C12.8352 26.341 12.3294 26.1148 11.4938 26.1148C11.0702 26.1148 10.5345 26.3257 9.96743 26.5495C9.19248 26.8541 8.31532 27.2 7.32003 27.2H7.29394Z" fill="#41414D"/>
<path d="M14.5407 0C14.6307 3.15289 12.3121 5.34022 9.99621 5.20304C9.61459 2.68692 12.3118 0 14.5407 0Z" fill="#41414D"/>
</svg>
