<svg width="22" height="22" viewBox="0 0 22 22" fill="none" xmlns="http://www.w3.org/2000/svg">
<path d="M22 11.2445C22 10.34 21.9251 9.68004 21.763 8.99561H11.2245V13.0778H17.4104C17.2857 14.0922 16.6122 15.62 15.1156 16.6466L15.0946 16.7833L18.4267 19.313L18.6576 19.3356C20.7777 17.4167 22 14.5933 22 11.2445Z" fill="#4285F4"/>
<path d="M11.2245 22C14.2551 22 16.7993 21.0222 18.6577 19.3355L15.1157 16.6466C14.1678 17.2944 12.8957 17.7466 11.2245 17.7466C8.25629 17.7466 5.73703 15.8278 4.83898 13.1755L4.70735 13.1865L1.24258 15.8143L1.19727 15.9377C3.04306 19.531 6.83446 22 11.2245 22Z" fill="#34A853"/>
<path d="M4.83896 13.1757C4.602 12.4912 4.46486 11.7578 4.46486 11.0001C4.46486 10.2423 4.602 9.50898 4.82649 8.82454L4.82021 8.67878L1.31203 6.00879L1.19725 6.06229C0.436513 7.55342 0 9.22789 0 11.0001C0 12.7723 0.436513 14.4467 1.19725 15.9378L4.83896 13.1757Z" fill="#FBBC05"/>
<path d="M11.2245 4.25329C13.3322 4.25329 14.7539 5.1455 15.5646 5.89111L18.7324 2.85999C16.7869 1.08778 14.2551 0 11.2245 0C6.83445 0 3.04305 2.46886 1.19727 6.06215L4.8265 8.8244C5.73702 6.17219 8.25627 4.25329 11.2245 4.25329Z" fill="#EB4335"/>
</svg>
